<svg width="30" height="30" viewBox="0 0 30 30" fill="none" xmlns="http://www.w3.org/2000/svg">
<path d="M15 28.9917C7.27268 28.9917 1.0083 22.7274 1.0083 15C1.0083 7.27268 7.27268 1.0083 15 1.0083C22.7274 1.0083 28.9917 7.27268 28.9917 15C28.9917 22.7274 22.7274 28.9917 15 28.9917Z" fill="#FADEB9"/>
<path d="M9.1213 14.5836C8.64833 14.5836 8.26489 14.1997 8.26489 13.7268C8.26489 12.8057 8.26489 5.43692 8.26489 4.51583C8.26489 4.04286 8.64833 3.65942 9.1213 3.65942C10.6743 3.65942 23.098 3.65942 24.651 3.65942C25.1244 3.65942 25.5079 4.04286 25.5079 4.51583C25.5079 5.43692 25.5079 12.8057 25.5079 13.7268C25.5079 14.1997 25.1244 14.5836 24.651 14.5836C21.545 14.5836 10.6743 14.5836 9.1213 14.5836Z" fill="#DCA050"/>
<path d="M25.5079 24.2385C24.6993 25.1577 23.7731 25.9686 22.7512 26.6502C21.532 26.6502 11.7778 26.6502 10.5585 26.6502C10.0851 26.6502 9.70166 26.2663 9.70166 25.7933C9.70166 23.6657 9.70166 6.64349 9.70166 4.51583C9.70166 4.04286 10.0851 3.65942 10.5585 3.65942C11.9676 3.65942 23.242 3.65942 24.651 3.65942C25.1245 3.65942 25.5079 4.04286 25.5079 4.51583C25.5079 4.51583 25.5079 22.2665 25.5079 24.2385Z" fill="#EBAE56"/>
<path d="M10.658 24.937C10.5005 24.937 10.3726 24.8091 10.3726 24.6511C10.3726 22.7799 10.3726 7.80611 10.3726 5.93439C10.3726 5.77689 10.5005 5.64893 10.658 5.64893C11.904 5.64893 21.8691 5.64893 23.1151 5.64893C23.2726 5.64893 23.4005 5.77689 23.4005 5.93439C23.4005 7.80611 23.4005 22.7799 23.4005 24.6511C23.4005 24.8091 23.2726 24.937 23.1151 24.937C20.6237 24.937 11.904 24.937 10.658 24.937Z" fill="#FFF5F5"/>
<path d="M12.2883 4.37769C11.8261 4.37769 11.4502 4.75409 11.4502 5.21581C11.4502 5.3119 11.4502 6.07831 11.4502 6.17394C11.4502 6.90003 12.0413 7.49112 12.7674 7.49112C13.591 7.49112 20.1816 7.49112 21.0057 7.49112C21.7318 7.49112 22.3228 6.90003 22.3228 6.17394C22.3228 6.07831 22.3228 5.3119 22.3228 5.21581C22.3228 4.75409 21.9469 4.37769 21.4847 4.37769C19.6453 4.37769 13.208 4.37769 12.2883 4.37769ZM21.6043 6.17394C21.6043 6.50441 21.3357 6.773 21.0057 6.773C20.1816 6.773 13.591 6.773 12.7674 6.773C12.4369 6.773 12.1683 6.50441 12.1683 6.17394C12.1683 6.07831 12.1683 5.3119 12.1683 5.21581C12.1683 5.15019 12.2222 5.09628 12.2883 5.09628C13.208 5.09628 20.565 5.09628 21.4847 5.09628C21.5503 5.09628 21.6043 5.15019 21.6043 5.21581C21.6043 5.40753 21.6043 5.98269 21.6043 6.17394Z" fill="#235967"/>
<path d="M20.0476 5.16981C20.0476 5.43466 19.8334 5.64888 19.5685 5.64888C19.0323 5.64888 14.7404 5.64888 14.2042 5.64888C13.9398 5.64888 13.7251 5.43466 13.7251 5.16981C13.7251 4.97856 13.7251 3.44575 13.7251 3.25403C13.7251 2.98966 13.9398 2.77544 14.2042 2.77544C14.2998 2.77544 14.7788 2.77544 15.6413 2.77544C15.6413 2.08544 15.6413 1.702 15.6413 1.6256C15.6413 0.937939 16.1987 0.380127 16.8863 0.380127C17.574 0.380127 18.1318 0.937939 18.1318 1.6256C18.1318 1.702 18.1318 2.08544 18.1318 2.77497C18.9938 2.77497 19.4729 2.77497 19.5685 2.77497C19.8334 2.77544 20.0476 2.98966 20.0476 3.25403C20.0476 3.63747 20.0476 4.97856 20.0476 5.16981Z" fill="#458FA4"/>
<path d="M20.0475 5.16989C20.0475 5.43474 19.8333 5.64895 19.5684 5.64895C19.1278 5.64895 15.6028 5.64895 15.1622 5.64895C14.8978 5.64895 14.6831 5.43474 14.6831 5.16989C14.6831 5.06067 14.6831 4.18645 14.6831 4.07724C14.6831 3.7552 14.9447 3.49364 15.2667 3.49364C15.4598 3.49364 17.0048 3.49364 17.198 3.49364C17.4 3.49364 17.5631 3.32677 17.5565 3.12333C17.5509 2.92692 17.3794 2.77505 17.1825 2.77505C16.8605 2.77505 16.5989 2.51395 16.5989 2.19145C16.5989 2.13474 16.5989 1.68192 16.5989 1.62567C16.5989 1.10771 16.9153 0.663799 17.3653 0.47583C17.8153 0.663799 18.1317 1.10771 18.1317 1.62567C18.1317 1.70208 18.1317 2.08552 18.1317 2.77505C18.9937 2.77505 19.4728 2.77505 19.5684 2.77505C19.8333 2.77552 20.0475 2.98974 20.0475 3.25411C20.0475 3.63755 20.0475 4.97864 20.0475 5.16989Z" fill="#649EB0"/>
<path d="M16.8863 2.29632C16.4898 2.29632 16.1677 1.97429 16.1677 1.57772C16.1677 1.18069 16.4898 0.859131 16.8863 0.859131C17.2833 0.859131 17.6049 1.18069 17.6049 1.57772C17.6049 1.97429 17.2833 2.29632 16.8863 2.29632Z" fill="#95BCC9"/>
<path d="M11.5767 10.4967C11.5767 10.4334 11.6278 10.3823 11.691 10.3823C12.1588 10.3823 15.9028 10.3823 16.3706 10.3823C16.4338 10.3823 16.4849 10.4334 16.4849 10.4967C16.4849 10.552 16.4849 10.9959 16.4849 11.0512C16.4849 11.1145 16.4338 11.1656 16.3706 11.1656C15.9028 11.1656 12.1588 11.1656 11.691 11.1656C11.6278 11.1656 11.5767 11.1145 11.5767 11.0512C11.5767 10.9401 11.5767 10.552 11.5767 10.4967ZM18.4588 9.72981C18.5221 9.72981 18.5732 9.67825 18.5732 9.61544C18.5732 9.56013 18.5732 9.11622 18.5732 9.06091C18.5732 8.99763 18.5221 8.94653 18.4588 8.94653C17.7824 8.94653 12.3679 8.94653 11.691 8.94653C11.6278 8.94653 11.5767 8.99763 11.5767 9.06091C11.5767 9.11622 11.5767 9.56013 11.5767 9.61544C11.5767 9.67872 11.6278 9.72981 11.691 9.72981C13.0448 9.72981 17.7824 9.72981 18.4588 9.72981ZM18.0838 14.8626C18.1471 14.8626 18.1982 14.8115 18.1982 14.7487C18.1982 14.6929 18.1982 14.249 18.1982 14.1937C18.1982 14.1304 18.1471 14.0793 18.0838 14.0793C17.4445 14.0793 12.3304 14.0793 11.691 14.0793C11.6278 14.0793 11.5767 14.1304 11.5767 14.1937C11.5767 14.249 11.5767 14.6929 11.5767 14.7487C11.5767 14.8115 11.6278 14.8626 11.691 14.8626C12.9698 14.8626 17.4445 14.8626 18.0838 14.8626ZM11.691 15.5151C11.6278 15.5151 11.5767 15.5667 11.5767 15.6295C11.5767 15.6848 11.5767 16.1287 11.5767 16.1845C11.5767 16.2473 11.6278 16.2984 11.691 16.2984C12.4528 16.2984 18.546 16.2984 19.3077 16.2984C19.3706 16.2984 19.4217 16.2473 19.4217 16.1845C19.4217 16.1287 19.4217 15.6848 19.4217 15.6295C19.4217 15.5667 19.3706 15.5151 19.3077 15.5151C17.7843 15.5151 12.4528 15.5151 11.691 15.5151ZM11.691 19.2192C11.6278 19.2192 11.5767 19.2703 11.5767 19.3336C11.5767 19.3889 11.5767 19.8328 11.5767 19.8881C11.5767 19.9514 11.6278 20.0025 11.691 20.0025C12.3956 20.0025 18.0318 20.0025 18.7363 20.0025C18.7996 20.0025 18.8507 19.9514 18.8507 19.8881C18.8507 19.8328 18.8507 19.3889 18.8507 19.3336C18.8507 19.2703 18.7996 19.2192 18.7363 19.2192C17.3273 19.2192 12.3956 19.2192 11.691 19.2192ZM11.691 20.655C11.6278 20.655 11.5767 20.7065 11.5767 20.7693C11.5767 20.8247 11.5767 21.2686 11.5767 21.3239C11.5767 21.3872 11.6278 21.4383 11.691 21.4383C12.2732 21.4383 16.9307 21.4383 17.5129 21.4383C17.5757 21.4383 17.6268 21.3872 17.6268 21.3239C17.6268 21.2686 17.6268 20.8247 17.6268 20.7693C17.6268 20.7065 17.5757 20.655 17.5129 20.655C16.3485 20.655 12.2732 20.655 11.691 20.655Z" fill="#F9D19A"/>
<path d="M19.9205 9.82069C19.7448 9.62803 19.7584 9.32991 19.951 9.15413C20.1437 8.97835 20.4418 8.99241 20.6176 9.18507C20.6879 9.26194 21.038 9.64585 21.669 10.3373C22.9707 8.90991 23.6944 8.11678 23.8388 7.95835C24.0146 7.76569 24.3132 7.75163 24.5054 7.92741C24.698 8.10319 24.7116 8.40178 24.5363 8.59397C24.2846 8.87007 22.2694 11.0793 22.0173 11.3554C21.9282 11.4533 21.8016 11.5096 21.669 11.5096C21.5359 11.5096 21.4098 11.4533 21.3202 11.3554C21.0404 11.0483 20.2004 10.1277 19.9205 9.82069ZM21.669 15.1987C21.038 14.5068 20.6879 14.1229 20.6176 14.046C20.4423 13.8533 20.1437 13.8398 19.951 14.0155C19.7584 14.1908 19.7448 14.4894 19.9205 14.6821C20.0607 14.8354 21.1805 16.063 21.3202 16.2168C21.4098 16.3148 21.5363 16.3705 21.669 16.3705C21.8016 16.3705 21.9282 16.3148 22.0173 16.2168C22.2694 15.9407 24.2846 13.7315 24.5363 13.4554C24.7116 13.2627 24.698 12.9641 24.5059 12.7888C24.3132 12.613 24.0146 12.6266 23.8393 12.8193C23.5496 13.1366 22.8263 13.9298 21.669 15.1987ZM21.669 20.338C21.038 19.6466 20.6879 19.2627 20.6176 19.1858C20.4423 18.9932 20.1437 18.9796 19.951 19.1554C19.7584 19.3307 19.7448 19.6293 19.9205 19.8219C20.0607 19.9752 21.1805 21.2029 21.3202 21.3562C21.4098 21.4546 21.5363 21.5104 21.669 21.5104C21.8016 21.5104 21.9282 21.4546 22.0173 21.3562C22.2694 21.0801 24.2846 18.8713 24.5363 18.5952C24.7116 18.4026 24.698 18.104 24.5059 17.9287C24.3132 17.7529 24.0146 17.7665 23.8393 17.9591C23.5496 18.2765 22.8263 19.0691 21.669 20.338Z" fill="#49CB5C"/>
<path d="M3.68762 20.3349C2.01137 17.6026 2.42809 14.0771 4.6945 11.8107C7.40106 9.10412 11.789 9.10412 14.4956 11.8107C16.762 14.0771 17.1783 17.6026 15.502 20.3349C14.9433 21.2457 10.4742 28.5301 9.91544 29.4404C9.76872 29.6794 9.42137 29.6794 9.27419 29.4404C8.15716 27.6193 4.24637 21.2457 3.68762 20.3349Z" fill="#FF3E30"/>
<path d="M10.6509 28.2417C7.73996 23.4975 6.12277 20.8622 5.79933 20.3349C4.12308 17.6025 4.53933 14.077 6.80621 11.8106C7.88996 10.7269 9.24371 10.0772 10.6509 9.86157C12.0581 10.0772 13.4114 10.7269 14.4956 11.8106C16.762 14.077 17.1782 17.6025 15.502 20.3349C14.8551 21.3891 13.2379 24.0249 10.6509 28.2417Z" fill="#FF7369"/>
<path d="M12.8577 16.7732C12.8577 18.5737 11.3957 20.0357 9.59478 20.0357C7.79431 20.0357 6.33228 18.5737 6.33228 16.7732C6.33228 14.9723 7.79431 13.5103 9.59478 13.5103C11.3957 13.5103 12.8577 14.9723 12.8577 16.7732Z" fill="white"/>
</svg>
